<svg width="123" height="108" viewBox="0 0 123 108" fill="none" xmlns="http://www.w3.org/2000/svg">
<path fill-rule="evenodd" clip-rule="evenodd" d="M25.11 93.69V54.91H42.56C49.99 56.22 57.35 60.22 64.75 64.91H78.3C84.44 65.28 87.65 71.5 81.69 75.58C76.94 79.07 70.69 78.87 64.23 78.3C59.8 78.08 59.61 84.02 64.23 84.05C65.84 84.18 67.59 83.8 69.11 83.8C77.11 83.8 83.74 82.26 87.78 75.92L89.78 71.18L109.98 61.18C120.07 57.86 127.25 68.41 119.81 75.75C105.746 86.0278 90.6997 94.8876 74.89 102.2C63.76 108.97 52.63 108.74 41.53 102.2L25.11 93.69ZM50.61 0L115.73 19.66L105.94 53.84L101.36 53.14L108.36 28.14L108.46 27.82C108.77 26.6797 108.616 25.463 108.031 24.4361C107.446 23.4092 106.479 22.6555 105.34 22.34L103.14 21.74V21.67L92.78 18.93L49.13 5.15L50.61 0ZM39.84 6.9L105 26.55L95.17 60.73L30.05 41.08L39.84 6.9ZM62.53 28.66C63.6263 27.4932 65.0441 26.6779 66.604 26.3174C68.1639 25.9568 69.7956 26.0672 71.2928 26.6345C72.7899 27.2019 74.085 28.2007 75.0141 29.5045C75.9433 30.8083 76.4647 32.3585 76.5123 33.9588C76.56 35.5591 76.1317 37.1375 75.2818 38.4943C74.4318 39.8511 73.1984 40.9252 71.7377 41.5806C70.277 42.236 68.6547 42.4432 67.0761 42.1761C65.4976 41.909 64.0337 41.1795 62.87 40.08C61.3132 38.6092 60.4032 36.581 60.3395 34.4403C60.2758 32.2995 61.0635 30.2208 62.53 28.66ZM49.34 15.24L92.43 28.6C92.049 29.9339 92.2103 31.3644 92.8789 32.5799C93.5476 33.7955 94.6693 34.6976 96 35.09L92.18 48.61C91.5168 48.4207 90.8229 48.364 90.1377 48.443C89.4526 48.522 88.7898 48.7352 88.1871 49.0704C87.5844 49.4057 87.0536 49.8564 86.6252 50.3968C86.1967 50.9372 85.879 51.5567 85.69 52.22L42.59 38.86C42.9703 37.5234 42.8062 36.0906 42.1335 34.8746C41.4609 33.6586 40.3343 32.7582 39 32.37L42.86 18.85C43.5238 19.0408 44.2188 19.0987 44.905 19.0204C45.5913 18.9422 46.2553 18.7293 46.8592 18.3939C47.463 18.0586 47.9947 17.6073 48.4238 17.0661C48.853 16.5249 49.1711 15.9044 49.36 15.24H49.34ZM0 51.22H19.86V97.59H0V51.22Z" fill="white"/>
</svg>
