<svg width="108" height="108" viewBox="0 0 108 108" fill="none" xmlns="http://www.w3.org/2000/svg">
<path fill-rule="evenodd" clip-rule="evenodd" d="M16.4052 91.5946C11.9381 87.1275 10.6566 80.3136 12.0575 71.3731C4.74499 66.0417 0.833008 60.3174 0.833008 54C0.833008 47.6827 4.74499 41.9583 12.0575 36.627C10.6566 27.6865 11.9381 20.8726 16.4052 16.4055C20.8722 11.9385 27.6861 10.657 36.6267 12.0579C41.958 4.74536 47.6823 0.833374 53.9997 0.833374C60.317 0.833374 66.0414 4.74536 71.3727 12.0579C80.3132 10.657 87.1272 11.9385 91.5942 16.4055C96.0612 20.8726 97.3427 27.6865 95.9418 36.627C103.254 41.9583 107.166 47.6827 107.166 54C107.166 60.3174 103.254 66.0417 95.9418 71.3731C97.3427 80.3136 96.0612 87.1275 91.5942 91.5946C87.1272 96.0616 80.3132 97.3431 71.3727 95.9422C66.0414 103.255 60.317 107.167 53.9997 107.167C47.6823 107.167 41.958 103.255 36.6267 95.9422C27.6861 97.3431 20.8722 96.0616 16.4052 91.5946ZM37.8205 85.8903C39.7825 85.4701 41.8 86.3058 42.8903 87.9903C47.1473 94.5676 50.9432 97.5 53.9997 97.5C57.0561 97.5 60.8521 94.5676 65.1091 87.9903C66.1993 86.3058 68.2169 85.4701 70.1788 85.8903C77.8399 87.531 82.5976 86.9204 84.7588 84.7592C86.92 82.5979 87.5306 77.8402 85.8899 70.1792C85.4697 68.2172 86.3055 66.1997 87.9899 65.1095C94.5672 60.8524 97.4997 57.0565 97.4997 54C97.4997 50.9436 94.5672 47.1476 87.9899 42.8906C86.3055 41.8004 85.4697 39.7828 85.8899 37.8209C87.5306 30.1598 86.92 25.4021 84.7588 23.2409C82.5976 21.0797 77.8399 20.4691 70.1788 22.1098C68.2169 22.53 66.1993 21.6943 65.1091 20.0098C60.8521 13.4325 57.0561 10.5 53.9997 10.5C50.9432 10.5 47.1473 13.4325 42.8903 20.0098C41.8 21.6943 39.7825 22.53 37.8205 22.1098C30.1595 20.4691 25.4018 21.0797 23.2405 23.2409C21.0793 25.4021 20.4687 30.1598 22.1094 37.8209C22.5296 39.7828 21.6939 41.8004 20.0094 42.8906C13.4322 47.1476 10.4997 50.9436 10.4997 54C10.4997 57.0565 13.4322 60.8524 20.0094 65.1095C21.6939 66.1997 22.5296 68.2172 22.1094 70.1792C20.4687 77.8402 21.0793 82.5979 23.2405 84.7592C25.4018 86.9204 30.1595 87.531 37.8205 85.8903ZM49.1663 56.8313L69.9153 36.0824L76.7507 42.9177L49.1663 70.5021L31.2487 52.5844L38.084 45.749L49.1663 56.8313Z" fill="#525252"/>
</svg>
