<svg width="110" height="111" viewBox="0 0 110 111" fill="none" xmlns="http://www.w3.org/2000/svg">
<path fill-rule="evenodd" clip-rule="evenodd" d="M38.078 65.7248C36.6921 63.5043 35.5136 61.1609 34.5572 58.7241C26.9832 54.4604 25.7735 35.4998 30.4407 36.936C30.4407 36.2224 30.3143 34.2261 30.3143 32.853C30.3143 2.0769 79.7308 2.05883 79.7308 32.853C79.7308 34.2622 79.5864 36.2224 79.6044 36.936C84.2626 35.4727 83.0529 54.4333 75.4879 58.7241C73.565 64.0537 70.1346 67.6308 70.4144 69.9704C70.4144 78.001 61.5946 80.9097 55.0677 80.9819C54.4719 80.9819 53.8671 80.9819 53.2622 80.8916C54.695 80.5106 56.0681 79.933 57.3426 79.1753C60.1502 77.459 62.046 74.9206 62.046 71.8764C62.046 68.8323 60.1592 66.2759 57.3517 64.5686C54.7781 63.0571 51.8499 62.256 48.8658 62.2471C46.5478 62.2038 44.244 62.6182 42.0862 63.4665C40.7473 64.0103 39.5224 64.8008 38.4752 65.7971H38.1412L38.078 65.7248ZM90.6631 28.5623H90.3291C87.2327 15.437 79.2704 6.33154 69.7825 2.56469C64.2283 0.466421 58.2749 -0.36078 52.3595 0.143792C46.5329 0.598892 40.8643 2.25995 35.7128 5.02172C31.4095 7.41034 27.7383 10.7925 25.0047 14.887C22.271 18.9815 20.5538 23.6699 19.9959 28.5623H19.373C16.3939 28.5623 13.3787 31.0102 13.3787 33.9822V53.5571C13.3787 56.5381 16.3939 58.977 19.373 58.977H21.1334C23.0562 66.7908 30.8469 73.9451 38.8182 73.9451H40.38C41.7431 75.9504 44.3882 77.3686 48.7936 77.3686C53.199 77.3686 57.8933 74.8845 57.8933 71.8313C57.8933 68.7781 53.2622 66.303 48.7936 66.303C44.325 66.303 41.6167 67.7573 40.2987 69.853H38.8182C32.0115 69.853 25.277 62.6265 24.7985 56.1045V28.9145C25.3068 24.8237 26.7695 20.9097 29.0685 17.4889C31.3675 14.0681 34.4382 11.2363 38.0328 9.22216C42.5826 6.80139 47.5829 5.34678 52.7206 4.94946C57.9074 4.50283 63.1285 5.21875 68.0041 7.04516C75.8671 10.1526 82.5023 17.885 85.364 28.5623H85.2466V58.977H90.6631C93.6422 58.977 96.6574 56.5381 96.6574 53.5571V33.9912C96.6574 31.0012 93.6422 28.5713 90.6631 28.5713V28.5623ZM58.3086 94.3511H59.9877C60.706 94.3511 61.3948 94.0656 61.9027 93.5573C62.4106 93.0491 62.6959 92.3598 62.6959 91.6411V87.1245C62.6959 86.4058 62.4106 85.7165 61.9027 85.2083C61.3948 84.7001 60.706 84.4145 59.9877 84.4145H50.0574C49.3428 84.4262 48.6607 84.7154 48.1553 85.2211C47.6499 85.7269 47.3608 86.4094 47.3492 87.1245V91.6411C47.3631 92.3555 47.6529 93.0367 48.1578 93.542C48.6627 94.0472 49.3435 94.3372 50.0574 94.3511H51.7275L48.4415 110.999H61.4501L58.3086 94.342V94.3511ZM0 111.008C1.29093 94.2607 -1.99508 94.9382 12.0246 89.6899C19.189 87.0617 26.0772 83.7334 32.5892 79.7534L44.5687 111.035L0 111.008ZM77.9975 78.2991C83.9441 82.0784 90.3323 85.1122 97.0185 87.3323C110.108 91.6863 110.108 92.3005 109.982 110.972H65.5847L77.9975 78.2991Z" fill="#525252"/>
</svg>
