<svg width="42" height="48" viewBox="0 0 42 48" fill="none" xmlns="http://www.w3.org/2000/svg">
<path d="M21.4113 0.989776C18.726 1.23196 15.6346 2.1152 13.1915 3.34034C9.95767 4.95725 7.08 7.40754 4.76505 10.506C2.95583 12.9349 1.65945 15.6559 0.918669 18.619C0.377326 20.763 0.199253 22.5366 0.256237 25.0439C0.327466 27.9002 0.776211 30.1795 1.78054 32.7153C2.98432 35.7497 4.60122 38.2356 6.88056 40.5648C9.53029 43.2572 12.4364 45.1163 15.9196 46.3415C17.2515 46.8116 19.4454 47.2888 21.2831 47.5096C22.2518 47.6236 24.8517 47.6236 25.9486 47.5096C28.6767 47.2247 31.2339 46.4839 33.6058 45.3086C36.3054 43.9624 37.965 42.7515 40.2586 40.4508L41.7758 38.9265L41.7259 29.5171L41.6761 20.1077L35.2013 20.0864L28.7266 20.0721V24.2746V28.4772H31.3549H33.9762L34.0118 31.9816C34.0332 33.912 34.0332 35.536 34.0189 35.5787C33.9691 35.7069 32.9362 36.5688 32.2168 37.0745C30.3506 38.4065 27.8362 39.3895 25.4785 39.6958C24.4243 39.8311 22.6222 39.8311 21.5609 39.6958C18.1419 39.247 14.9366 37.6301 12.4222 35.0944C9.28811 31.9318 7.64272 27.3589 8.06297 22.9925C8.44048 19.0963 10.0788 15.72 12.9208 12.9848C15.1503 10.8337 17.7573 9.53729 21.1051 8.91047C21.6393 8.81075 22.1664 8.78226 23.5981 8.78226C25.4928 8.78226 25.9771 8.83212 27.3376 9.18115C28.748 9.53729 30.5501 10.3493 31.7752 11.1898L32.4448 11.6386L33.271 10.7838C33.7198 10.3066 34.9734 9.05293 36.049 7.99874L38.0078 6.07555L37.2242 5.49147C33.8052 2.94146 30.0443 1.45277 25.9202 1.01827C24.8161 0.904301 22.5439 0.890055 21.4113 0.989776Z" fill="#468585"/>
<path d="M25.094 20.1433C25.8562 20.1647 26.4545 20.1932 26.4118 20.2074C26.3762 20.2217 26.4189 20.2502 26.5186 20.2787C26.6825 20.3214 26.6896 20.3641 26.711 20.8556C26.7466 21.9312 26.8036 22.5224 26.8677 22.5651C26.9104 22.5865 26.946 22.7931 26.9603 23.0281C26.9745 23.2632 26.9887 22.6933 27.003 21.7602L27.0172 20.0721L25.3647 20.0864L23.7051 20.1006L25.094 20.1433Z" fill="#468585"/>
<path d="M26.8389 25.5496C26.7962 26.3189 26.8033 26.5112 26.8817 26.5611C26.9387 26.5967 26.9458 26.6252 26.9102 26.6252C26.8674 26.6252 26.8318 26.6893 26.8318 26.7605C26.8318 26.8389 26.8603 26.8816 26.8888 26.8674C26.9173 26.846 26.9458 26.8745 26.9458 26.9386C26.9458 26.9956 26.903 27.0597 26.8603 27.0739C26.7891 27.1024 26.7891 27.1167 26.8603 27.1167C26.903 27.1238 26.9458 27.195 26.9458 27.2805C26.9458 27.4158 26.9315 27.423 26.8746 27.3375C26.8247 27.2591 26.8033 27.2876 26.8033 27.4657C26.8033 27.5939 26.8247 27.6865 26.8603 27.6723C26.8888 27.6509 26.9173 27.7577 26.9315 27.9073L26.9458 28.178L26.611 28.2207C26.1053 28.2848 20.7631 28.2563 20.3927 28.1922C20.2146 28.1566 20.0579 28.1638 20.0365 28.1922C19.9938 28.2635 19.8157 28.178 19.8015 28.0783C19.7944 28.0498 19.716 28.0142 19.6305 28.007C19.5379 27.9928 19.3955 27.9714 19.31 27.9501C19.2174 27.9287 19.3385 28.007 19.5736 28.121C19.8086 28.2421 20.0579 28.3276 20.122 28.3062C20.1861 28.292 20.2574 28.3133 20.2716 28.3632C20.293 28.4202 21.2189 28.4487 23.655 28.4629L27.017 28.4843L27.0099 26.6822C27.0028 24.6379 26.9244 24.0823 26.8389 25.5496Z" fill="#468585"/>
</svg>
